{"title":"Game.of.Thrones.S05E06.1080i.HDTV.MPEG2.DD5.1-CtrlHD[rarbg]","uid":11940729,"size":5747045354,"categoryP":"video","categoryS":"hd___tv_shows","magnet":"?xt=urn:btih:357f1d826ed9f52aa2804aab99ea870027de06f8&amp;dn=Game.of.Thrones.S05E06.1080i.HDTV.MPEG2.DD5.1-CtrlHD%5Brarbg%5D&amp;tr=udp%3A%2F%2Ftracker.openbittorrent.com%3A80&amp;tr=udp%3A%2F%2Fopen.demonii.com%3A1337&amp;tr=udp%3A%2F%2Ftracker.coppersurfer.tk%3A6969&amp;tr=udp%3A%2F%2Fexodus.desync.com%3A6969","seeders":29,"leechers":2,"uploader":"vickey1992","files":2,"time":1431959262,"description":"Video\nID                                       : 33 (0x21)\nMenu ID                                  : 1 (0x1)\nFormat                                   : MPEG Video\nFormat version                           : Version 2\nFormat profile                           : Main@High\nFormat settings, BVOP                    : Yes\nFormat settings, Matrix                  : Default\nFormat settings, GOP                     : Variable\nCodec ID                                 : 2\nDuration                                 : 56mn 7s\nBit rate mode                            : Variable\nBit rate                                 : 12.6 Mbps\nMaximum bit rate                         : 38.8 Mbps\nWidth                                    : 1 920 pixels\nHeight                                   : 1 080 pixels\nDisplay aspect ratio                     : 16:9\nFrame rate                               : 29.970 fps\nColor space                              : YUV\nChroma subsampling                       : 4:2:0\nBit depth                                : 8 bits\nCompression mode                         : Lossy\nBits/(Pixel*Frame)                       : 0.203\nTime code of first frame                 : 00:00:00;00\nTime code source                         : Group of pictures header\nStream size                              : 4.94 GiB (92%)\n\nAudio\nID                                       : 36 (0x24)\nMenu ID                                  : 1 (0x1)\nFormat                                   : AC-3\nFormat/Info                              : Audio Coding 3\nMode extension                           : CM (complete main)\nFormat settings, Endianness              : Big\nCodec ID                                 : 129\nDuration                                 : 56mn 7s\nBit rate mode                            : Constant\nBit rate                                 : 384 Kbps\nChannel(s)                               : 2 channels\nChannel positions                        : Front: L R\nSampling rate                            : 48.0 KHz\nBit depth                                : 16 bits\nCompression mode                         : Lossy\nStream size                              : 154 MiB (3%)\nLanguage                                 : English\n\nText #1\nID                                       : 33 (0x21)-CC1\nMenu ID                                  : 1 (0x1)\nFormat                                   : EIA-608\nMuxing mode                              : A/53 / DTVCC Transport\nMuxing mode, more info                   : Muxed in Video #1\nDuration                                 : 56mn 7s\nBit rate mode                            : Constant\nStream size                              : 0.00 Byte (0%)\n\nText #2\nID                                       : 33 (0x21)-CC3\nMenu ID                                  : 1 (0x1)\nFormat                                   : EIA-608\nMuxing mode                              : A/53 / DTVCC Transport\nMuxing mode, more info                   : Muxed in Video #1\nDuration                                 : 56mn 7s\nBit rate mode                            : Constant\nStream size                              : 0.00 Byte (0%)\n\nText #3\nID                                       : 33 (0x21)-1\nMenu ID                                  : 1 (0x1)\nFormat                                   : EIA-708\nMuxing mode                              : A/53 / DTVCC Transport\nMuxing mode, more info                   : Muxed in Video #1\nDuration                                 : 56mn 7s\nBit rate mode                            : Constant\nStream size                              : 0.00 Byte (0%)\n\nText #4\nID                                       : 33 (0x21)-2\nMenu ID                                  : 1 (0x1)\nFormat                                   : EIA-708\nMuxing mode                              : A/53 / DTVCC Transport\nMuxing mode, more info                   : Muxed in Video #1\nDuration                                 : 56mn 7s\nBit rate mode                            : Constant\nStream size                              : 0.00 Byte (0%)","torrent":{"xt":"urn:btih:357f1d826ed9f52aa2804aab99ea870027de06f8","amp;dn":"Game.of.Thrones.S05E06.1080i.HDTV.MPEG2.DD5.1-CtrlHD%5Brarbg%5D","amp;tr":["udp%3A%2F%2Ftracker.openbittorrent.com%3A80","udp%3A%2F%2Fopen.demonii.com%3A1337","udp%3A%2F%2Ftracker.coppersurfer.tk%3A6969","udp%3A%2F%2Fexodus.desync.com%3A6969"],"infoHash":"357f1d826ed9f52aa2804aab99ea870027de06f8","infoHashBuffer":{"type":"Buffer","data":[53,127,29,130,110,217,245,42,162,128,74,171,153,234,135,0,39,222,6,248]},"announce":[],"urlList":[]}}